<mxfile host="app.diagrams.net" modified="2021-02-17T13:24:16.279Z" agent="5.0 (Windows)" etag="s17DbnDocDuhrxOIsQj5" version="14.3.2" type="github">
  <diagram id="X7jb9b3zE5-qh8nfnlw-" name="Page-1">
    <mxGraphModel dx="2249" dy="763" grid="1" gridSize="10" guides="1" tooltips="1" connect="1" arrows="1" fold="1" page="1" pageScale="1" pageWidth="827" pageHeight="1169" math="0" shadow="0">
      <root>
        <mxCell id="0" />
        <mxCell id="1" parent="0" />
        <mxCell id="w0u_-q4YyYrNf1ZZ5IZc-1" value="EventController" style="swimlane;fontStyle=1;align=center;verticalAlign=top;childLayout=stackLayout;horizontal=1;startSize=26;horizontalStack=0;resizeParent=1;resizeParentMax=0;resizeLast=0;collapsible=1;marginBottom=0;fillColor=#f8cecc;strokeColor=#b85450;" parent="1" vertex="1">
          <mxGeometry x="260" y="290" width="190" height="110" as="geometry" />
        </mxCell>
        <mxCell id="w0u_-q4YyYrNf1ZZ5IZc-2" value="- bus : GlobalBus&#xa;- scope : CoroutineScope" style="text;strokeColor=none;fillColor=none;align=left;verticalAlign=top;spacingLeft=4;spacingRight=4;overflow=hidden;rotatable=0;points=[[0,0.5],[1,0.5]];portConstraint=eastwest;" parent="w0u_-q4YyYrNf1ZZ5IZc-1" vertex="1">
          <mxGeometry y="26" width="190" height="34" as="geometry" />
        </mxCell>
        <mxCell id="w0u_-q4YyYrNf1ZZ5IZc-3" value="" style="line;strokeWidth=1;fillColor=none;align=left;verticalAlign=middle;spacingTop=-1;spacingLeft=3;spacingRight=3;rotatable=0;labelPosition=right;points=[];portConstraint=eastwest;" parent="w0u_-q4YyYrNf1ZZ5IZc-1" vertex="1">
          <mxGeometry y="60" width="190" height="10" as="geometry" />
        </mxCell>
        <mxCell id="w0u_-q4YyYrNf1ZZ5IZc-4" value="+ send(Event)&#xa;+ register(KClass, suspend fun)" style="text;strokeColor=none;fillColor=none;align=left;verticalAlign=top;spacingLeft=4;spacingRight=4;overflow=hidden;rotatable=0;points=[[0,0.5],[1,0.5]];portConstraint=eastwest;" parent="w0u_-q4YyYrNf1ZZ5IZc-1" vertex="1">
          <mxGeometry y="70" width="190" height="40" as="geometry" />
        </mxCell>
        <mxCell id="w0u_-q4YyYrNf1ZZ5IZc-10" style="edgeStyle=orthogonalEdgeStyle;rounded=0;orthogonalLoop=1;jettySize=auto;html=1;exitX=0.5;exitY=0;exitDx=0;exitDy=0;entryX=0.496;entryY=1;entryDx=0;entryDy=0;entryPerimeter=0;endArrow=none;endFill=0;" parent="1" source="w0u_-q4YyYrNf1ZZ5IZc-5" target="w0u_-q4YyYrNf1ZZ5IZc-4" edge="1">
          <mxGeometry relative="1" as="geometry" />
        </mxCell>
        <mxCell id="w0u_-q4YyYrNf1ZZ5IZc-5" value="Event&#xa;&lt;&lt;Interface&gt;&gt;" style="swimlane;fontStyle=1;align=center;verticalAlign=top;childLayout=stackLayout;horizontal=1;startSize=36;horizontalStack=0;resizeParent=1;resizeParentMax=0;resizeLast=0;collapsible=1;marginBottom=0;fillColor=#f8cecc;strokeColor=#b85450;" parent="1" vertex="1">
          <mxGeometry x="260" y="510" width="190" height="46" as="geometry" />
        </mxCell>
        <mxCell id="w0u_-q4YyYrNf1ZZ5IZc-7" value="" style="line;strokeWidth=1;fillColor=none;align=left;verticalAlign=middle;spacingTop=-1;spacingLeft=3;spacingRight=3;rotatable=0;labelPosition=right;points=[];portConstraint=eastwest;" parent="w0u_-q4YyYrNf1ZZ5IZc-5" vertex="1">
          <mxGeometry y="36" width="190" height="10" as="geometry" />
        </mxCell>
        <mxCell id="w0u_-q4YyYrNf1ZZ5IZc-15" style="edgeStyle=orthogonalEdgeStyle;rounded=0;orthogonalLoop=1;jettySize=auto;html=1;exitX=0;exitY=0.5;exitDx=0;exitDy=0;entryX=0.5;entryY=0;entryDx=0;entryDy=0;endArrow=none;endFill=0;" parent="1" source="w0u_-q4YyYrNf1ZZ5IZc-11" target="w0u_-q4YyYrNf1ZZ5IZc-1" edge="1">
          <mxGeometry relative="1" as="geometry" />
        </mxCell>
        <mxCell id="w0u_-q4YyYrNf1ZZ5IZc-11" value="EventDebugger" style="swimlane;fontStyle=1;align=center;verticalAlign=top;childLayout=stackLayout;horizontal=1;startSize=26;horizontalStack=0;resizeParent=1;resizeParentMax=0;resizeLast=0;collapsible=1;marginBottom=0;fillColor=#fff2cc;strokeColor=#d6b656;" parent="1" vertex="1">
          <mxGeometry x="460" y="160" width="160" height="34" as="geometry" />
        </mxCell>
        <mxCell id="w0u_-q4YyYrNf1ZZ5IZc-13" value="" style="line;strokeWidth=1;fillColor=none;align=left;verticalAlign=middle;spacingTop=-1;spacingLeft=3;spacingRight=3;rotatable=0;labelPosition=right;points=[];portConstraint=eastwest;" parent="w0u_-q4YyYrNf1ZZ5IZc-11" vertex="1">
          <mxGeometry y="26" width="160" height="8" as="geometry" />
        </mxCell>
        <mxCell id="I_gqFSqUUuNn3sEIFGfj-1" value="InputController" style="swimlane;fontStyle=1;align=center;verticalAlign=top;childLayout=stackLayout;horizontal=1;startSize=26;horizontalStack=0;resizeParent=1;resizeParentMax=0;resizeLast=0;collapsible=1;marginBottom=0;fillColor=#d5e8d4;strokeColor=#82b366;" parent="1" vertex="1">
          <mxGeometry x="590" y="290" width="160" height="86" as="geometry" />
        </mxCell>
        <mxCell id="I_gqFSqUUuNn3sEIFGfj-2" value="+ field: type" style="text;strokeColor=none;fillColor=none;align=left;verticalAlign=top;spacingLeft=4;spacingRight=4;overflow=hidden;rotatable=0;points=[[0,0.5],[1,0.5]];portConstraint=eastwest;" parent="I_gqFSqUUuNn3sEIFGfj-1" vertex="1">
          <mxGeometry y="26" width="160" height="26" as="geometry" />
        </mxCell>
        <mxCell id="I_gqFSqUUuNn3sEIFGfj-3" value="" style="line;strokeWidth=1;fillColor=none;align=left;verticalAlign=middle;spacingTop=-1;spacingLeft=3;spacingRight=3;rotatable=0;labelPosition=right;points=[];portConstraint=eastwest;" parent="I_gqFSqUUuNn3sEIFGfj-1" vertex="1">
          <mxGeometry y="52" width="160" height="8" as="geometry" />
        </mxCell>
        <mxCell id="I_gqFSqUUuNn3sEIFGfj-4" value="+ method(type): type" style="text;strokeColor=none;fillColor=none;align=left;verticalAlign=top;spacingLeft=4;spacingRight=4;overflow=hidden;rotatable=0;points=[[0,0.5],[1,0.5]];portConstraint=eastwest;" parent="I_gqFSqUUuNn3sEIFGfj-1" vertex="1">
          <mxGeometry y="60" width="160" height="26" as="geometry" />
        </mxCell>
        <mxCell id="I_gqFSqUUuNn3sEIFGfj-15" style="edgeStyle=orthogonalEdgeStyle;rounded=0;orthogonalLoop=1;jettySize=auto;html=1;exitX=0.5;exitY=0;exitDx=0;exitDy=0;entryX=1;entryY=0.5;entryDx=0;entryDy=0;endArrow=none;endFill=0;" parent="1" source="I_gqFSqUUuNn3sEIFGfj-5" target="I_gqFSqUUuNn3sEIFGfj-2" edge="1">
          <mxGeometry relative="1" as="geometry" />
        </mxCell>
        <mxCell id="I_gqFSqUUuNn3sEIFGfj-5" value="KeyboardController" style="swimlane;fontStyle=1;align=center;verticalAlign=top;childLayout=stackLayout;horizontal=1;startSize=26;horizontalStack=0;resizeParent=1;resizeParentMax=0;resizeLast=0;collapsible=1;marginBottom=0;fillColor=#d5e8d4;strokeColor=#82b366;" parent="1" vertex="1">
          <mxGeometry x="590" y="460" width="160" height="34" as="geometry" />
        </mxCell>
        <mxCell id="I_gqFSqUUuNn3sEIFGfj-7" value="" style="line;strokeWidth=1;fillColor=none;align=left;verticalAlign=middle;spacingTop=-1;spacingLeft=3;spacingRight=3;rotatable=0;labelPosition=right;points=[];portConstraint=eastwest;" parent="I_gqFSqUUuNn3sEIFGfj-5" vertex="1">
          <mxGeometry y="26" width="160" height="8" as="geometry" />
        </mxCell>
        <mxCell id="I_gqFSqUUuNn3sEIFGfj-16" style="edgeStyle=orthogonalEdgeStyle;rounded=0;orthogonalLoop=1;jettySize=auto;html=1;exitX=1;exitY=0.5;exitDx=0;exitDy=0;entryX=1;entryY=0.25;entryDx=0;entryDy=0;endArrow=none;endFill=0;" parent="1" source="I_gqFSqUUuNn3sEIFGfj-9" target="I_gqFSqUUuNn3sEIFGfj-1" edge="1">
          <mxGeometry relative="1" as="geometry" />
        </mxCell>
        <mxCell id="I_gqFSqUUuNn3sEIFGfj-9" value="GamepadController" style="swimlane;fontStyle=1;align=center;verticalAlign=top;childLayout=stackLayout;horizontal=1;startSize=26;horizontalStack=0;resizeParent=1;resizeParentMax=0;resizeLast=0;collapsible=1;marginBottom=0;fillColor=#d5e8d4;strokeColor=#82b366;" parent="1" vertex="1">
          <mxGeometry x="590" y="510" width="160" height="34" as="geometry" />
        </mxCell>
        <mxCell id="I_gqFSqUUuNn3sEIFGfj-10" value="" style="line;strokeWidth=1;fillColor=none;align=left;verticalAlign=middle;spacingTop=-1;spacingLeft=3;spacingRight=3;rotatable=0;labelPosition=right;points=[];portConstraint=eastwest;" parent="I_gqFSqUUuNn3sEIFGfj-9" vertex="1">
          <mxGeometry y="26" width="160" height="8" as="geometry" />
        </mxCell>
        <mxCell id="I_gqFSqUUuNn3sEIFGfj-17" style="edgeStyle=orthogonalEdgeStyle;rounded=0;orthogonalLoop=1;jettySize=auto;html=1;exitX=1;exitY=0.5;exitDx=0;exitDy=0;entryX=1.008;entryY=-0.128;entryDx=0;entryDy=0;entryPerimeter=0;endArrow=none;endFill=0;" parent="1" source="I_gqFSqUUuNn3sEIFGfj-11" target="I_gqFSqUUuNn3sEIFGfj-4" edge="1">
          <mxGeometry relative="1" as="geometry" />
        </mxCell>
        <mxCell id="I_gqFSqUUuNn3sEIFGfj-11" value="MouseController" style="swimlane;fontStyle=1;align=center;verticalAlign=top;childLayout=stackLayout;horizontal=1;startSize=26;horizontalStack=0;resizeParent=1;resizeParentMax=0;resizeLast=0;collapsible=1;marginBottom=0;fillColor=#d5e8d4;strokeColor=#82b366;" parent="1" vertex="1">
          <mxGeometry x="590" y="556" width="160" height="34" as="geometry" />
        </mxCell>
        <mxCell id="I_gqFSqUUuNn3sEIFGfj-12" value="" style="line;strokeWidth=1;fillColor=none;align=left;verticalAlign=middle;spacingTop=-1;spacingLeft=3;spacingRight=3;rotatable=0;labelPosition=right;points=[];portConstraint=eastwest;" parent="I_gqFSqUUuNn3sEIFGfj-11" vertex="1">
          <mxGeometry y="26" width="160" height="8" as="geometry" />
        </mxCell>
        <mxCell id="I_gqFSqUUuNn3sEIFGfj-18" style="edgeStyle=orthogonalEdgeStyle;rounded=0;orthogonalLoop=1;jettySize=auto;html=1;exitX=1;exitY=0.5;exitDx=0;exitDy=0;endArrow=none;endFill=0;" parent="1" source="w0u_-q4YyYrNf1ZZ5IZc-2" target="I_gqFSqUUuNn3sEIFGfj-1" edge="1">
          <mxGeometry relative="1" as="geometry" />
        </mxCell>
        <mxCell id="WpnASqpmwnNqVq-CiVDO-6" style="edgeStyle=orthogonalEdgeStyle;rounded=0;orthogonalLoop=1;jettySize=auto;html=1;entryX=-0.005;entryY=0.853;entryDx=0;entryDy=0;entryPerimeter=0;endArrow=none;endFill=0;" edge="1" parent="1" source="WpnASqpmwnNqVq-CiVDO-1" target="w0u_-q4YyYrNf1ZZ5IZc-2">
          <mxGeometry relative="1" as="geometry" />
        </mxCell>
        <mxCell id="WpnASqpmwnNqVq-CiVDO-1" value="PhysicsListener" style="swimlane;fontStyle=1;align=center;verticalAlign=top;childLayout=stackLayout;horizontal=1;startSize=26;horizontalStack=0;resizeParent=1;resizeParentMax=0;resizeLast=0;collapsible=1;marginBottom=0;fillColor=#dae8fc;strokeColor=#6c8ebf;" vertex="1" parent="1">
          <mxGeometry x="-50" y="290" width="190" height="110" as="geometry" />
        </mxCell>
        <mxCell id="WpnASqpmwnNqVq-CiVDO-2" value="- activeObjects: List&lt;Physics&gt;&#xa;- event: Event&#xa;" style="text;strokeColor=none;fillColor=none;align=left;verticalAlign=top;spacingLeft=4;spacingRight=4;overflow=hidden;rotatable=0;points=[[0,0.5],[1,0.5]];portConstraint=eastwest;" vertex="1" parent="WpnASqpmwnNqVq-CiVDO-1">
          <mxGeometry y="26" width="190" height="34" as="geometry" />
        </mxCell>
        <mxCell id="WpnASqpmwnNqVq-CiVDO-3" value="" style="line;strokeWidth=1;fillColor=none;align=left;verticalAlign=middle;spacingTop=-1;spacingLeft=3;spacingRight=3;rotatable=0;labelPosition=right;points=[];portConstraint=eastwest;" vertex="1" parent="WpnASqpmwnNqVq-CiVDO-1">
          <mxGeometry y="60" width="190" height="10" as="geometry" />
        </mxCell>
        <mxCell id="WpnASqpmwnNqVq-CiVDO-4" value="+ setupPhysicsSystem(Vec2)&#xa;+ addPhysicsComponent()&#xa;" style="text;strokeColor=none;fillColor=none;align=left;verticalAlign=top;spacingLeft=4;spacingRight=4;overflow=hidden;rotatable=0;points=[[0,0.5],[1,0.5]];portConstraint=eastwest;" vertex="1" parent="WpnASqpmwnNqVq-CiVDO-1">
          <mxGeometry y="70" width="190" height="40" as="geometry" />
        </mxCell>
      </root>
    </mxGraphModel>
  </diagram>
</mxfile>
